<svg width="30" height="33" viewBox="0 0 30 33" fill="none" xmlns="http://www.w3.org/2000/svg">
<path d="M8.94754 7.30309C8.66875 7.26226 8.3844 7.31839 8.14204 7.46209H8.12104C7.55854 7.79209 7.05154 8.20759 6.61954 8.69659C6.25954 9.11209 6.06454 9.53209 6.01354 9.93709C5.98353 10.1771 6.00454 10.4201 6.07504 10.6496L6.10204 10.6646C6.50704 11.8541 7.03504 12.9986 7.68004 14.0756C8.51208 15.5881 9.5355 16.9871 10.725 18.2381L10.761 18.2891L10.818 18.3311L10.8525 18.3716L10.8945 18.4076C12.15 19.6006 13.5523 20.6289 15.0675 21.4676C16.8 22.4111 17.8515 22.8566 18.483 23.0426V23.0516C18.6675 23.1086 18.8355 23.1341 19.005 23.1341C19.5431 23.0955 20.0525 22.8767 20.451 22.5131C20.9385 22.0811 21.351 21.5726 21.672 21.0071V20.9966C21.9735 20.4266 21.8715 19.8896 21.4365 19.5251C20.5635 18.7607 19.6186 18.0826 18.615 17.5001C17.943 17.1356 17.2605 17.3561 16.9845 17.7251L16.395 18.4691C16.092 18.8381 15.543 18.7871 15.543 18.7871L15.528 18.7961C11.4315 17.7506 10.338 13.6031 10.338 13.6031C10.338 13.6031 10.287 13.0391 10.6665 12.7511L11.4045 12.1571C11.7585 11.8691 12.0045 11.1881 11.625 10.5161C11.0439 9.51323 10.3673 8.56884 9.60454 7.69609C9.4377 7.49115 9.20404 7.35149 8.94454 7.30159M15.87 5.50009C15.6711 5.50009 15.4804 5.57911 15.3397 5.71976C15.1991 5.86041 15.12 6.05118 15.12 6.25009C15.12 6.449 15.1991 6.63976 15.3397 6.78042C15.4804 6.92107 15.6711 7.00009 15.87 7.00009C17.766 7.00009 19.341 7.61959 20.5875 8.80759C21.228 9.45709 21.7275 10.2266 22.0545 11.0696C22.383 11.9141 22.533 12.8156 22.494 13.7186C22.4857 13.9175 22.5567 14.1116 22.6914 14.2581C22.8262 14.4047 23.0136 14.4917 23.2125 14.5001C23.4114 14.5084 23.6055 14.4374 23.7521 14.3027C23.8987 14.1679 23.9857 13.9805 23.994 13.7816C24.0388 12.6709 23.8545 11.5629 23.4525 10.5266C23.0488 9.48496 22.4339 8.53813 21.6465 7.74559L21.6315 7.73059C20.085 6.25309 18.129 5.50009 15.87 5.50009Z" fill="#1E1E1E"/>
<path d="M15.8175 7.96609C15.6186 7.96609 15.4279 8.0451 15.2872 8.18576C15.1466 8.32641 15.0675 8.51717 15.0675 8.71609C15.0675 8.915 15.1466 9.10577 15.2872 9.24642C15.4279 9.38707 15.6186 9.46609 15.8175 9.46609H15.843C17.211 9.56359 18.207 10.0196 18.9045 10.7681C19.62 11.5391 19.9905 12.4976 19.962 13.6826C19.9575 13.8815 20.0321 14.0741 20.1695 14.218C20.3069 14.3619 20.4959 14.4453 20.6948 14.4498C20.8937 14.4544 21.0863 14.3798 21.2302 14.2424C21.3741 14.1049 21.4575 13.916 21.462 13.7171C21.498 12.1616 20.997 10.8191 20.004 9.74809V9.74509C18.9885 8.65609 17.595 8.08009 15.918 7.96759L15.8925 7.96459L15.8175 7.96609Z" fill="#1E1E1E"/>
<path d="M15.789 10.4786C15.6887 10.4697 15.5875 10.4812 15.4917 10.5123C15.3959 10.5434 15.3073 10.5935 15.2312 10.6595C15.1551 10.7256 15.0932 10.8064 15.049 10.8969C15.0048 10.9875 14.9794 11.086 14.9741 11.1867C14.9689 11.2873 14.984 11.3879 15.0185 11.4826C15.053 11.5773 15.1062 11.664 15.175 11.7376C15.2438 11.8113 15.3267 11.8703 15.4188 11.9112C15.5109 11.9521 15.6103 11.974 15.711 11.9756C16.338 12.0086 16.7385 12.1976 16.9905 12.4511C17.244 12.7061 17.433 13.1156 17.4675 13.7561C17.4694 13.8567 17.4915 13.956 17.5326 14.0479C17.5736 14.1398 17.6327 14.2225 17.7064 14.2911C17.7801 14.3597 17.8668 14.4128 17.9615 14.4471C18.0561 14.4815 18.1567 14.4964 18.2572 14.4911C18.3577 14.4857 18.4561 14.4602 18.5466 14.416C18.637 14.3719 18.7177 14.3099 18.7837 14.2339C18.8497 14.1579 18.8997 14.0694 18.9308 13.9736C18.9619 13.8779 18.9733 13.7769 18.9645 13.6766C18.9165 12.7766 18.6345 11.9816 18.057 11.3966C17.4765 10.8116 16.686 10.5266 15.789 10.4786Z" fill="#1E1E1E"/>
<path fill-rule="evenodd" clip-rule="evenodd" d="M7.60054 1.57609C12.3736 0.509143 17.3234 0.509143 22.0965 1.57609L22.605 1.68859C24 2.0013 25.281 2.69424 26.3062 3.69055C27.3314 4.68687 28.0606 5.94765 28.413 7.33309C29.6257 12.1073 29.6257 17.1089 28.413 21.8831C28.0606 23.2685 27.3314 24.5293 26.3062 25.5256C25.281 26.5219 24 27.2149 22.605 27.5276L22.095 27.6401C19.1054 28.3077 16.038 28.5595 12.9795 28.3886L9.00004 31.9496C8.85001 32.0839 8.66667 32.1755 8.46917 32.2148C8.27166 32.2541 8.06723 32.2397 7.87721 32.173C7.68718 32.1064 7.51854 31.9899 7.38887 31.8358C7.2592 31.6818 7.17327 31.4957 7.14004 31.2971L6.48154 27.3641C5.21916 26.9705 4.07865 26.2601 3.16878 25.3007C2.25892 24.3412 1.61004 23.1646 1.28404 21.8831C0.0713371 17.1089 0.0713371 12.1073 1.28404 7.33309C1.63645 5.94765 2.36567 4.68687 3.39084 3.69055C4.41602 2.69424 5.6971 2.0013 7.09204 1.68859L7.60054 1.57609ZM21.606 3.77059C17.156 2.7758 12.5411 2.7758 8.09104 3.77059L7.58104 3.88459C6.59248 4.10686 5.68471 4.59838 4.95825 5.30472C4.2318 6.01106 3.71498 6.90466 3.46504 7.88659C2.34453 12.2975 2.34453 16.9186 3.46504 21.3296C3.7151 22.3117 4.23214 23.2054 4.95888 23.9118C5.68562 24.6182 6.5937 25.1096 7.58254 25.3316L7.71754 25.3616C7.93593 25.4104 8.13479 25.5233 8.28869 25.6857C8.4426 25.8482 8.54456 26.0529 8.58154 26.2736L9.02254 28.9106L11.8305 26.3981C11.9427 26.2975 12.0739 26.2204 12.2164 26.1714C12.3589 26.1225 12.5097 26.1026 12.66 26.1131C15.6586 26.3248 18.6721 26.1 21.606 25.4456L22.1145 25.3316C23.1034 25.1096 24.0114 24.6182 24.7382 23.9118C25.4649 23.2054 25.982 22.3117 26.232 21.3296C27.351 16.9196 27.351 12.2981 26.232 7.88659C25.982 6.90447 25.4649 6.01073 24.7382 5.30438C24.0114 4.59802 23.1034 4.10662 22.1145 3.88459L21.606 3.77059Z" fill="#1E1E1E"/>
</svg>
